<svg xmlns="http://www.w3.org/2000/svg" viewBox="0 0 256 256"><style>.st0{fill:#CAE0FF;} .st1{fill:#82B4FC;} .st2{fill:#0468F6;} .st3{fill:#032E6A;}</style><g id="Layer_1"><path class="st0" d="M0 0h256v256H0z"/><path class="st1" d="M127.9 51s-57.8 54.2-57.8 96.2c0 31.9 25.9 57.8 57.8 57.8s57.8-25.9 57.8-57.8c0-41.8-57.8-96.2-57.8-96.2z"/><path class="st2" d="M127.9 82s-38.5 36.1-38.5 64.2c0 21.3 17.2 38.5 38.5 38.5s38.5-17.2 38.5-38.5c0-28-38.5-64.2-38.5-64.2z"/><path class="st3" d="M127.9 112.9S108.7 131 108.7 145c0 10.6 8.6 19.2 19.2 19.2s19.2-8.6 19.2-19.2c.1-13.9-19.2-32.1-19.2-32.1z"/></g></svg>